<svg xmlns="http://www.w3.org/2000/svg" xmlns:xlink="http://www.w3.org/1999/xlink" fill="none" viewBox="0 0 430 286">
  <path fill="url(#a)" fill-opacity=".19" d="M430 0H0v285.999h430z"/>
  <path fill="url(#b)" d="m294.549 167.105.001-4.311-.001-.007h.001V133.24l-.001-22.473v-.001l.001-.006v-4.311c-.481-7.763-3.585-14.489-9.287-20.178-6.225-6.21-13.69-9.332-22.392-9.332h-44.914c-8.703 0-16.168 3.12-22.393 9.332-6.226 6.211-9.354 13.659-9.354 22.341 0 6.181 1.611 11.742 4.801 16.748 8.302 12.901 17.73 12.53 31.55 16.004 26.748 6.727 48.768 19.251 61.152 33.199 1.455 1.987 2.266 3.639 2.266 6.509 0 2.872-1.764 7.092-4.765 9.687a35 35 0 0 0 4.049-3.475q2.405-2.4 4.191-5.044l.044-.064.089-.134.01-.014.079-.12.061-.093.027-.043.087-.134.023-.036.065-.1.071-.114.014-.022.085-.136.035-.056.049-.08.083-.137.083-.136.048-.08.034-.058.081-.138.012-.021.068-.116.059-.102.02-.036.079-.138.025-.045.052-.095.07-.124.008-.015.076-.139.036-.066.039-.074.075-.14.004-.008.07-.133.047-.089.026-.051.072-.141.016-.031.056-.111q2.724-5.421 3.117-11.765"/>
  <path fill="url(#c)" d="M239.161 63.635h-60.797c-7.781.48-14.522 3.576-20.225 9.265-6.226 6.21-9.353 13.657-9.353 22.34v44.81c-.001 8.683 3.127 16.13 9.353 22.341 6.226 6.21 13.69 9.331 22.393 9.331 6.194 0 11.769-1.607 16.787-4.79 12.93-8.282 12.559-17.689 16.042-31.476 6.742-26.686 19.294-48.654 33.276-61.01 1.991-1.452 3.647-2.26 6.524-2.261 2.878 0 7.108 1.76 9.709 4.754a35 35 0 0 0-3.484-4.04 34 34 0 0 0-5.055-4.181l-.064-.044-.135-.089-.013-.01-.121-.079-.092-.06-.043-.028-.135-.087-.036-.021-.101-.066-.114-.07-.021-.015-.136-.084-.058-.036-.079-.048-.137-.083h-.001l-.137-.082-.079-.048-.058-.034-.138-.08-.022-.014-.116-.067-.102-.059-.037-.02-.138-.08-.044-.023-.095-.053-.125-.07-.016-.007-.139-.076-.066-.037-.074-.038-.141-.075-.006-.004-.134-.07-.09-.046-.051-.027-.142-.071-.03-.016-.111-.056q-5.434-2.719-11.793-3.11"/>
  <path fill="url(#d)" d="M135.45 118.894v4.311l.001.006h-.001v52.022h.001l-.001.006v4.312c.482 7.762 3.585 14.488 9.287 20.177 6.225 6.211 13.689 9.332 22.393 9.332h44.913c8.704 0 16.168-3.121 22.393-9.332s9.354-13.658 9.354-22.341c0-6.18-1.611-11.742-4.801-16.748-8.302-12.9-17.731-12.53-31.55-16.005-26.748-6.726-48.768-19.25-61.152-33.198-1.455-1.987-2.266-3.639-2.266-6.51s1.764-7.09 4.765-9.686a35 35 0 0 0-4.049 3.476q-2.404 2.4-4.192 5.043l-.043.065-.09.134-.009.013-.08.121-.06.091-.027.043-.088.136-.022.035-.064.1-.072.114-.014.022-.085.136-.036.057-.048.079-.084.136-.082.138-.048.079-.033.058-.082.137-.012.022-.068.116-.058.102-.022.037-.078.138-.025.044-.052.095-.07.125-.008.014-.076.139-.036.067-.04.073-.074.14-.005.008-.069.133-.046.089-.027.051-.073.142-.015.03-.056.111q-2.724 5.421-3.118 11.765"/>
  <path fill="url(#e)" d="M190.838 222.365h60.797c7.782-.48 14.523-3.577 20.226-9.265 6.224-6.211 9.353-13.658 9.353-22.34v-18.858c-12.727-12.868-33.619-24.241-58.654-30.537a144 144 0 0 0-3.658-.864c-.697 3.083-1.346 6.41-2.263 10.043-6.742 26.685-19.295 48.654-33.276 61.009-1.992 1.452-3.648 2.261-6.525 2.261s-7.108-1.76-9.709-4.754a35 35 0 0 0 3.484 4.04 34 34 0 0 0 5.055 4.182l.064.043.135.089.013.01.121.079.092.06.043.028.136.087.035.023.1.064.115.071.022.014.136.085.057.035.079.048.137.084h.001l.137.082.079.047.058.035.138.081.022.012.116.068.103.058.036.021.139.078.044.025.095.053.125.069.014.008.14.076.067.035.074.04.139.075.008.003.134.07.089.047.051.026.142.072.031.015.111.057q5.434 2.718 11.792 3.11"/>
  <defs>
    <linearGradient id="a" x1="215" x2="215" y1="-.001" y2="285.999" gradientUnits="userSpaceOnUse">
      <stop offset=".01" stop-color="#0D65D7"/>
      <stop offset=".99" stop-color="#999" stop-opacity=".25"/>
    </linearGradient>
    <linearGradient id="b" x1="292.345" x2="217.913" y1="117.206" y2="117.206" gradientUnits="userSpaceOnUse">
      <stop stop-color="#063"/>
      <stop offset=".188" stop-color="#9C3"/>
      <stop offset=".478" stop-color="#9C3"/>
      <stop offset="1" stop-color="#033"/>
    </linearGradient>
    <linearGradient id="c" x1="189.205" x2="188.139" y1="66.373" y2="139.187" gradientUnits="userSpaceOnUse">
      <stop stop-color="#C30"/>
      <stop offset=".188" stop-color="#FC0"/>
      <stop offset=".478" stop-color="#FC0"/>
      <stop offset="1" stop-color="#C30"/>
    </linearGradient>
    <linearGradient id="d" x1="160.368" x2="218.871" y1="152.15" y2="152.15" gradientUnits="userSpaceOnUse">
      <stop stop-color="#369"/>
      <stop offset=".188" stop-color="#00BDF7"/>
      <stop offset=".478" stop-color="#00BDF7"/>
      <stop offset="1" stop-color="#32296C"/>
    </linearGradient>
    <linearGradient id="e" x1="224.171" x2="224.171" y1="216.635" y2="146.232" gradientUnits="userSpaceOnUse">
      <stop stop-color="#900"/>
      <stop offset=".188" stop-color="red"/>
      <stop offset=".478" stop-color="red"/>
      <stop offset="1" stop-color="#5C0909"/>
    </linearGradient>
  </defs>
</svg>
